<?xml version="1.0" encoding="UTF-8" standalone="no"?>
<svg width="14px" height="13px" viewBox="0 0 14 13" version="1.1" xmlns="http://www.w3.org/2000/svg" xmlns:xlink="http://www.w3.org/1999/xlink">
    <!-- Generator: Sketch 39.1 (31720) - http://www.bohemiancoding.com/sketch -->
    <title>Star 2 Copy 2</title>
    <desc>Created with Sketch.</desc>
    <defs></defs>
    <g id="Symbols" stroke="none" stroke-width="1" fill="none" fill-rule="evenodd">
        <g id="empty-star" fill="#003F60">
            <path d="M6.53465887,9.61486858 L7,9.37022427 L7.46534113,9.61486858 L10.9015211,11.4213753 L11.031068,12.1766922 L10.6776583,12.4334594 L9.99934145,12.0768471 L9.34308948,8.25060454 L9.25421724,7.73243958 L9.63068612,7.36547312 L12.4106141,4.65571308 L13.1689954,4.76591233 L13.3039859,5.1813704 L12.755216,5.7162888 L8.91345007,5.15804753 L8.39318287,5.08244829 L8.16051231,4.61100623 L6.44242234,1.12977573 L6.78158076,0.442565711 L7.21841924,0.442565711 L7.55757766,1.12977573 L5.83948769,4.61100623 L5.60681713,5.08244829 L5.08654993,5.15804753 L1.24478399,5.7162888 L0.696014134,5.1813704 L0.831004645,4.76591233 L1.58938593,4.65571308 L4.36931388,7.36547312 L4.74578276,7.73243958 L4.65691052,8.25060454 L4.00065855,12.0768471 L3.32234171,12.4334594 L2.96893196,12.1766922 L3.09847895,11.4213753 L6.53465887,9.61486858 Z M2.88550323,12.663119 L3.67130219,8.08155948 L0.342604386,4.83688104 L4.94275162,4.16844052 L7,0 L9.05724838,4.16844052 L13.6573956,4.83688104 L10.3286978,8.08155948 L11.1144968,12.663119 L7,10.5 L2.88550323,12.663119 Z" id="Star-2-Copy-2"></path>
        </g>
    </g>
</svg>